<?xml version="1.0" encoding="UTF-8"?>
<svg width="15px" height="17px" viewBox="0 0 15 17" version="1.1" xmlns="http://www.w3.org/2000/svg" xmlns:xlink="http://www.w3.org/1999/xlink">
    <!-- Generator: Sketch 47.1 (45422) - http://www.bohemiancoding.com/sketch -->
    <title>Page 1</title>
    <desc>Created with Sketch.</desc>
    <defs>
        <polygon id="path-1" points="14.754 0.8379 14.754 1.8379 0.0007 1.8379 0.0007 0.8379 14.754 0.8379"></polygon>
        <polygon id="path-3" points="7.8008 0.25 0.9528 0.25 0.9528 3.5387 7.8008 3.5387 7.8008 0.25"></polygon>
    </defs>
    <g id="Page-1" stroke="none" stroke-width="1" fill="none" fill-rule="evenodd">
        <g id="搜索地区1" transform="translate(-344.000000, -202.000000)">
            <g id="Page-1" transform="translate(344.000000, 202.000000)">
                <path d="M2.1684,4.3037 L2.1684,4.2707 C2.2254,4.2667 2.3084,4.2667 2.3734,4.2667 L12.3774,4.2667 L12.4454,4.2687 C12.4884,4.2687 12.5444,4.2697 12.5854,4.2707 L12.5854,4.3037 L12.5854,14.1577 C12.5854,15.0787 11.9694,16.0727 10.9744,16.0727 L4.1264,16.0727 C2.9164,16.0727 2.1684,14.8987 2.1684,13.8107 L2.1684,4.3037 Z M12.9484,3.6727 C12.7794,3.5857 12.6004,3.5877 12.3604,3.5877 L2.3694,3.5877 L2.3164,3.5897 C2.1314,3.5917 1.9584,3.5947 1.8064,3.6727 C1.4884,3.8377 1.4884,4.1877 1.4884,4.3037 L1.4884,13.8107 C1.4884,15.4317 2.6724,16.7497 4.1264,16.7497 L10.9744,16.7497 C12.3894,16.7497 13.2654,15.4047 13.2654,14.1577 L13.2654,4.3037 C13.2654,4.1877 13.2654,3.8377 12.9484,3.6727 L12.9484,3.6727 Z" id="Fill-1" fill="#555555"></path>
                <g id="Group-5" transform="translate(0.000000, 2.750000)">
                    <mask id="mask-2" fill="white">
                        <use xlink:href="#path-1"></use>
                    </mask>
                    <g id="Clip-4"></g>
                    <path d="M14.4027,0.8379 L0.3507,0.8379 C0.1577,0.8379 0.0007,0.9949 0.0007,1.1879 C0.0007,1.3809 0.1577,1.5389 0.3507,1.5389 L14.4027,1.5389 C14.5957,1.5389 14.7547,1.3809 14.7547,1.1879 C14.7547,0.9949 14.5957,0.8379 14.4027,0.8379" id="Fill-3" fill="#555555" mask="url(#mask-2)"></path>
                </g>
                <g id="Group-8" transform="translate(3.000000, 0.750000)">
                    <mask id="mask-4" fill="white">
                        <use xlink:href="#path-3"></use>
                    </mask>
                    <g id="Clip-7"></g>
                    <path d="M6.9828,0.9707 L6.9608,2.8377 L1.7688,2.8187 L1.7688,0.9707 C1.7688,0.9597 1.7798,0.9507 1.7918,0.9507 L6.9828,0.9707 Z M6.9608,0.2497 L1.7918,0.2497 C1.3288,0.2497 0.9528,0.5727 0.9528,0.9707 L0.9528,2.8187 C0.9528,3.2167 1.3288,3.5387 1.7918,3.5387 L6.9608,3.5387 C7.4238,3.5387 7.8008,3.2167 7.8008,2.8187 L7.8008,0.9707 C7.8008,0.5727 7.4238,0.2497 6.9608,0.2497 L6.9608,0.2497 Z" id="Fill-6" fill="#555555" mask="url(#mask-4)"></path>
                </g>
                <path d="M4.3041,6.168 C4.1111,6.168 3.9521,6.347 3.9521,6.565 L3.9521,13.773 C3.9521,13.992 4.1111,14.171 4.3041,14.171 C4.4961,14.171 4.6551,13.992 4.6551,13.773 L4.6551,6.565 C4.6551,6.347 4.4961,6.168 4.3041,6.168" id="Fill-9" fill="#555555"></path>
                <path d="M7.3764,6.168 C7.1844,6.168 7.0274,6.346 7.0274,6.565 L7.0274,13.772 C7.0274,13.992 7.1844,14.171 7.3764,14.171 C7.5694,14.171 7.7284,13.992 7.7284,13.772 L7.7284,6.565 C7.7284,6.346 7.5694,6.168 7.3764,6.168" id="Fill-11" fill="#555555"></path>
                <path d="M10.4506,6.168 C10.2576,6.168 10.1006,6.346 10.1006,6.565 L10.1006,13.772 C10.1006,13.992 10.2576,14.171 10.4506,14.171 C10.6436,14.171 10.8026,13.992 10.8026,13.772 L10.8026,6.565 C10.8026,6.346 10.6436,6.168 10.4506,6.168" id="Fill-13" fill="#555555"></path>
            </g>
        </g>
    </g>
</svg>